HIERARCHY
ROOT Hips
{
	OFFSET -0.001795 -0.223333 0.028219
	CHANNELS 6 Xposition Yposition Zposition Zrotation Yrotation Xrotation 
	JOINT LeftUpLeg
	{
		OFFSET 0.069520 -0.091406 -0.006815
		CHANNELS 3 Zrotation Yrotation Xrotation
		JOINT LeftLeg
		{
			OFFSET 0.034277 -0.375199 -0.004496
			CHANNELS 3 Zrotation Yrotation Xrotation
			JOINT LeftFoot
			{
				OFFSET -0.013596 -0.397961 -0.043693
				CHANNELS 3 Zrotation Yrotation Xrotation
				JOINT LeftToe
				{
					OFFSET 0.026358 -0.055791 0.119288
					CHANNELS 3 Zrotation Yrotation Xrotation
					End Site
					{
						OFFSET 0.000000 0.000000 0.000000
					}
				}
			}
		}
	}
	JOINT RightUpLeg
	{
		OFFSET -0.067670 -0.090522 -0.004320
		CHANNELS 3 Zrotation Yrotation Xrotation
		JOINT RightLeg
		{
			OFFSET -0.038290 -0.382569 -0.008850
			CHANNELS 3 Zrotation Yrotation Xrotation
			JOINT RightFoot
			{
				OFFSET 0.015774 -0.398415 -0.042312
				CHANNELS 3 Zrotation Yrotation Xrotation
				JOINT RightToe
				{
					OFFSET -0.025372 -0.048144 0.123348
					CHANNELS 3 Zrotation Yrotation Xrotation
					End Site
					{
						OFFSET 0.000000 0.000000 0.000000
					}
				}
			}
		}
	}
	JOINT Spine
	{
		OFFSET -0.002533 0.108963 -0.026696
		CHANNELS 3 Zrotation Yrotation Xrotation
		JOINT Spine1
		{
			OFFSET 0.005487 0.135180 0.001092
			CHANNELS 3 Zrotation Yrotation Xrotation
			JOINT Spine2
			{
				OFFSET 0.001457 0.052922 0.025425
				CHANNELS 3 Zrotation Yrotation Xrotation
				JOINT Neck
				{
					OFFSET -0.002778 0.213870 -0.042857
					CHANNELS 3 Zrotation Yrotation Xrotation
					JOINT Head
					{
						OFFSET 0.005152 0.064970 0.051349
						CHANNELS 3 Zrotation Yrotation Xrotation
						End Site
						{
							OFFSET 0.000000 0.000000 0.000000
						}
					}
				}
				JOINT LeftShoulder
				{
					OFFSET 0.078845 0.121749 -0.034090
					CHANNELS 3 Zrotation Yrotation Xrotation
					JOINT LeftArm
					{
						OFFSET 0.090977 0.030469 -0.008868
						CHANNELS 3 Zrotation Yrotation Xrotation
						JOINT LeftForeArm
						{
							OFFSET 0.259612 -0.012772 -0.027456
							CHANNELS 3 Zrotation Yrotation Xrotation
							JOINT LeftHand
							{
								OFFSET 0.249234 0.008986 -0.001171
								CHANNELS 3 Zrotation Yrotation Xrotation
								End Site
								{
									OFFSET 0.000000 0.000000 0.000000
								}
							}
						}
					}
				}
				JOINT RightShoulder
				{
					OFFSET -0.081759 0.118833 -0.038615
					CHANNELS 3 Zrotation Yrotation Xrotation
					JOINT RightArm
					{
						OFFSET -0.096012 0.032551 -0.009143
						CHANNELS 3 Zrotation Yrotation Xrotation
						JOINT RightForeArm
						{
							OFFSET -0.253742 -0.013329 -0.021401
							CHANNELS 3 Zrotation Yrotation Xrotation
							JOINT RightHand
							{
								OFFSET -0.255298 0.007772 -0.005559
								CHANNELS 3 Zrotation Yrotation Xrotation
								End Site
								{
									OFFSET 0.000000 0.000000 0.000000
								}
							}
						}
					}
				}
			}
		}
	}
}
MOTION
Frames: 13
Frame Time: 0.050000
1.021495 0.896216 0.542368 -174.391890 7.069015 -179.474374 -0.181799 -13.047487 13.097270 -13.390284 -11.786943 21.624535 14.883239 -5.835794 27.916808 0.000000 0.000000 0.000000 13.890877 -13.958025 -29.096310 -14.125420 -16.305013 22.289872 77.293870 -10.647511 5.570455 0.000000 0.000000 0.000000 5.292370 -5.571163 17.188923 1.289579 0.300392 -38.429985 -4.721624 -0.545532 29.716274 -0.769773 -21.884280 -18.978524 0.000000 0.000000 0.000000 10.565592 -23.243915 -89.480586 21.844324 67.646819 16.398792 -32.121837 1.544298 -6.374274 0.000000 0.000000 0.000000 10.442925 -24.833239 63.596844 31.534538 52.487006 16.662919 -27.328242 30.542927 -6.153517 0.000000 0.000000 0.000000 
1.030603 0.887061 0.504467 -171.447429 4.768501 -178.284603 5.444950 -13.247397 8.227984 -25.364962 -18.245377 32.962606 28.584893 -5.947968 34.148512 0.000000 0.000000 0.000000 15.266703 -10.908500 -26.231485 -13.054977 -18.178773 21.840393 87.561611 -10.288250 -1.302010 0.000000 0.000000 0.000000 10.493993 -7.520363 15.837371 0.082715 -1.053752 -40.040248 -5.028242 1.455864 30.839728 -1.601782 -21.673691 -19.820593 0.000000 0.000000 0.000000 14.342328 -22.385605 -91.065848 4.058679 64.969573 0.602904 -37.344236 0.177994 -8.184101 0.000000 0.000000 0.000000 6.046950 -24.192260 66.340696 23.692672 54.393514 17.222043 -35.901628 27.704235 -5.417874 0.000000 0.000000 0.000000 
1.041043 0.880907 0.469547 -169.311851 3.130215 -179.077502 10.585229 -12.160541 0.266897 -57.248251 -25.242323 55.514989 37.705442 -3.460667 57.182474 0.000000 0.000000 0.000000 15.958191 -6.664614 -20.857673 -11.030208 -19.178556 19.707576 97.972903 -7.429274 -10.312782 0.000000 0.000000 0.000000 13.169313 -8.326007 14.764465 3.726871 1.786210 -35.540627 -9.855390 5.002290 27.689002 -2.463078 -20.486914 -22.788128 0.000000 0.000000 0.000000 18.343463 -29.979379 -78.766773 -23.359110 49.515017 -16.737241 -39.757282 -12.306078 -7.204491 0.000000 0.000000 0.000000 1.925833 -26.331075 57.911983 21.969006 49.482556 18.934458 -40.681731 32.101283 -2.258527 0.000000 0.000000 0.000000 
1.051575 0.879381 0.437099 -169.145043 3.493204 -179.346147 17.030943 -14.183777 -10.279406 -104.509746 -24.012719 68.271647 32.449758 -2.106613 96.527831 0.000000 0.000000 0.000000 16.198267 -4.255778 -17.219045 -10.662871 -20.229712 19.440363 103.095045 -2.587407 -13.048915 0.000000 0.000000 0.000000 13.346217 -9.270797 16.177010 6.529645 0.599691 -41.147504 -9.418974 12.368591 30.577840 -3.386225 -24.210095 -19.710568 0.000000 0.000000 0.000000 25.453782 -35.833318 -61.255554 -30.324381 29.611675 -18.683948 -33.930176 -29.419217 -9.327363 0.000000 0.000000 0.000000 -7.183191 -27.037512 57.107555 12.166624 47.793955 17.044316 -46.319593 24.923629 5.197055 0.000000 0.000000 0.000000 
1.061515 0.883343 0.405618 -168.783039 2.923287 179.649704 22.575671 -18.224662 -19.713426 -131.201815 -26.364310 69.104224 18.323426 3.598806 125.862249 0.000000 0.000000 0.000000 16.262801 -1.763776 -12.372791 -8.798623 -20.848354 17.721450 110.610201 -0.121519 -17.298735 0.000000 0.000000 0.000000 15.636181 -11.579083 16.396088 3.169071 -2.131008 -44.467195 -3.784114 16.537722 35.834598 1.663082 -18.557155 -26.612450 0.000000 0.000000 0.000000 34.803144 -33.233205 -55.689981 -26.098388 14.456516 -17.387775 -27.229986 -28.524545 -12.415149 0.000000 0.000000 0.000000 -20.060297 -27.629303 58.212254 3.715053 47.854058 17.846002 -44.704467 8.791188 14.586566 0.000000 0.000000 0.000000 
1.070348 0.892355 0.373896 -168.817909 2.859208 178.359829 32.976589 -25.283919 -28.345732 -141.184495 -39.709415 65.317065 8.560761 10.213971 136.425814 0.000000 0.000000 0.000000 16.095146 -0.093444 -7.751018 -7.102265 -21.441351 16.425856 117.616054 0.165066 -20.711553 0.000000 0.000000 0.000000 17.014047 -15.684957 18.064153 -0.633186 -5.954357 -46.402737 3.875558 22.349622 36.992058 -2.532391 -26.022861 -23.312741 0.000000 0.000000 0.000000 41.521570 -30.764942 -56.528537 -16.671351 9.690683 -12.678493 -20.541461 -23.412831 -11.554876 0.000000 0.000000 0.000000 -28.641000 -28.169013 62.753900 -6.858209 43.358194 12.113392 -38.246734 -0.996852 16.799276 0.000000 0.000000 0.000000 
1.077644 0.902222 0.341898 -170.272045 1.792646 177.368791 37.899191 -28.292509 -34.429944 -135.987250 -47.162539 62.033471 -4.743069 6.841072 143.708430 0.000000 0.000000 0.000000 14.729993 0.104625 -3.822566 -5.722201 -19.729310 14.022022 130.963876 0.574727 -25.963350 0.000000 0.000000 0.000000 15.462124 -14.659180 18.739256 -2.483407 -4.674063 -42.859176 2.067446 20.345105 32.932437 -3.162801 -31.151096 -19.013628 0.000000 0.000000 0.000000 44.638384 -28.302540 -53.093149 -7.815276 6.116618 -6.464181 -12.159836 -19.536167 -9.225223 0.000000 0.000000 0.000000 -31.795461 -27.539652 66.895997 -12.355935 38.134614 6.897618 -32.581759 -7.778134 15.751012 0.000000 0.000000 0.000000 
1.083169 0.911815 0.309780 -172.647524 2.612517 175.144932 34.571171 -26.322468 -32.441490 -112.281225 -47.356632 51.942635 -18.021281 -9.989620 153.770886 0.000000 0.000000 0.000000 12.223841 -1.318619 1.862216 -4.403260 -17.788028 11.838911 137.736717 1.643967 -27.377910 0.000000 0.000000 0.000000 9.073642 -12.742074 22.619276 0.958841 -2.506598 -42.686266 -0.731877 19.249840 31.533738 -9.430277 -39.621410 -10.206784 0.000000 0.000000 0.000000 47.155901 -21.716388 -49.048262 -4.354922 3.188257 -4.072439 -6.077814 -13.464856 -5.870657 0.000000 0.000000 0.000000 -32.263945 -25.627986 72.003709 -15.897529 32.609916 2.855657 -29.321711 -11.189169 14.343902 0.000000 0.000000 0.000000 
1.086987 0.920228 0.277345 -174.721262 4.137159 173.864768 29.919079 -23.298196 -28.141556 -80.969832 -44.340478 35.585810 -39.536085 -24.645332 173.372988 0.000000 0.000000 0.000000 9.659418 -3.466197 5.616520 -4.555736 -16.188573 11.539776 144.038766 -0.054520 -26.836839 0.000000 0.000000 0.000000 2.790861 -12.093242 25.579694 5.658640 0.599826 -39.977441 -5.148169 20.338948 27.108102 -14.183566 -44.735570 -1.269051 0.000000 0.000000 0.000000 48.312348 -17.503319 -38.232409 -2.847996 1.589335 -2.194608 1.175716 -6.377954 -3.174961 0.000000 0.000000 0.000000 -29.114291 -23.161403 74.360869 -17.178559 27.469791 0.542981 -27.226478 -14.195186 12.831018 0.000000 0.000000 0.000000 
1.089153 0.925911 0.244340 -175.911387 3.887822 175.134070 25.659911 -20.914723 -27.851827 -47.192193 -32.649645 19.263378 -47.983802 -48.775718 179.993295 0.000000 0.000000 0.000000 8.044445 -4.568822 6.662045 -4.676882 -15.117988 11.191834 146.599794 -0.655320 -27.576626 0.000000 0.000000 0.000000 0.628517 -7.978603 22.269011 2.333655 -1.463503 -42.387856 2.828104 16.654684 33.509507 -28.219605 -51.725146 8.593317 0.000000 0.000000 0.000000 51.206179 -25.731689 -57.499712 5.227043 12.254271 1.243674 -0.040872 -3.643676 -1.667685 0.000000 0.000000 0.000000 -33.920163 -25.971392 90.273380 -23.772934 25.254630 -0.077888 -23.834867 -22.973743 15.429347 0.000000 0.000000 0.000000 
1.089594 0.928009 0.210477 -176.603138 5.027732 176.066924 22.655601 -18.802163 -25.705257 -25.552323 -21.539235 6.555801 -5.815812 -68.674405 128.173591 0.000000 0.000000 0.000000 6.649619 -5.445102 7.569047 -5.151403 -15.801465 12.584493 145.893030 -2.815049 -25.881477 0.000000 0.000000 0.000000 -4.346509 -6.678636 21.342584 10.751449 -1.419694 -44.493336 2.337948 19.794987 36.604197 -33.641239 -52.142893 13.222184 0.000000 0.000000 0.000000 49.506096 -23.277017 -52.721501 -0.690862 12.225522 -0.568395 0.593237 -1.775535 -1.185238 0.000000 0.000000 0.000000 -32.595491 -24.338212 86.948297 -22.655773 25.719000 0.074792 -26.418424 -22.897322 16.620250 0.000000 0.000000 0.000000 
1.087856 0.926975 0.175245 -176.282859 3.961221 176.156703 20.990775 -17.964363 -25.424454 -16.189953 -14.832626 3.278318 33.273196 -49.080035 69.683183 0.000000 0.000000 0.000000 6.513656 -7.197018 10.471450 -5.156851 -15.123501 11.988402 157.657327 -3.441219 -28.464688 0.000000 0.000000 0.000000 -2.994830 -4.736337 18.378238 5.295188 1.360603 -38.526238 1.387863 7.768702 33.755924 -20.997118 -45.875872 -4.216731 0.000000 0.000000 0.000000 46.703483 -22.357541 -75.527388 3.655752 17.226118 0.278894 -2.727568 -8.690795 -2.436943 0.000000 0.000000 0.000000 -33.575961 -21.287823 89.336053 -26.260698 26.230830 0.175092 -25.637066 -26.436058 17.460371 0.000000 0.000000 0.000000 
1.083381 0.923352 0.137970 -175.972169 2.803623 176.927724 19.366915 -17.334348 -25.540008 -11.738041 -11.548846 2.974212 32.748933 -42.187373 61.292338 0.000000 0.000000 0.000000 6.432883 -8.768095 12.653470 -5.162548 -14.504960 11.351007 156.872091 -3.416632 -29.785020 0.000000 0.000000 0.000000 -1.936659 -4.017060 17.515856 4.917133 -0.444591 -43.238366 2.663268 7.225431 39.418583 -8.413624 -37.656197 -15.507439 0.000000 0.000000 0.000000 44.885452 -27.946701 -88.815855 8.223340 21.317203 2.171215 -12.918065 -13.497147 -3.705308 0.000000 0.000000 0.000000 -34.099415 -22.018639 96.308082 -32.282919 25.600193 -0.042100 -23.779227 -29.975414 17.597331 0.000000 0.000000 0.000000 
